<svg id="svg2985" xmlns="http://www.w3.org/2000/svg" viewBox="0 0 255.56 221.2"><defs><style>.cls-1{fill:#838383;}.cls-2{fill:#989898;}.cls-10,.cls-11,.cls-12,.cls-15,.cls-17,.cls-18,.cls-19,.cls-20,.cls-21,.cls-23,.cls-24,.cls-28,.cls-3,.cls-4,.cls-5,.cls-7,.cls-9{fill:none;}.cls-10,.cls-11,.cls-3,.cls-4,.cls-5{stroke:#555;}.cls-11,.cls-15,.cls-22,.cls-3,.cls-4,.cls-9{stroke-linecap:round;}.cls-3{stroke-width:0.51px;}.cls-23,.cls-24,.cls-4,.cls-9{stroke-width:0.42px;}.cls-11,.cls-5{stroke-width:0.34px;}.cls-6{fill:#6c6c6c;}.cls-7{stroke:#959595;}.cls-10,.cls-7{stroke-width:0.58px;}.cls-8{fill:#7a7a7a;}.cls-9{stroke:#949494;}.cls-12,.cls-15,.cls-21,.cls-22,.cls-28{stroke:#515151;}.cls-12{stroke-width:0.57px;}.cls-13{fill:#bababa;}.cls-14{fill:#595959;}.cls-15,.cls-22{stroke-width:0.5px;}.cls-16{fill:#999;}.cls-17,.cls-23{stroke:#7e7e7e;}.cls-17{stroke-width:1.28px;}.cls-18{stroke:#454545;stroke-width:0.33px;}.cls-19,.cls-24{stroke:#c5c5c5;}.cls-19,.cls-20,.cls-24{stroke-linejoin:bevel;}.cls-19{stroke-width:0.85px;}.cls-20{stroke:#797979;}.cls-20,.cls-28{stroke-width:0.25px;}.cls-21{stroke-width:0.83px;}.cls-22,.cls-26{fill:#515151;}.cls-25{fill:#616161;}.cls-27{fill:#707070;}.cls-29{fill:#535353;}</style></defs><title>Artboard 1</title><path id="p5953" class="cls-1" d="M79.53,118.39,13.59,143.33.19,149.9l17.35,8.55L0,168.2l106.07,53,9.56-2.93,25.13-13.58L148.1,210l66.77-31.63-10.33-4.59,51-26-49.68-27.11-79.72,18.37Z"/><path id="p3881-5-2-4-3-07" class="cls-2" d="M72.52,70.43a8.93,8.93,0,0,1,2.17.45c17.47,7.65,18.36,8.73,31.25,15a13.75,13.75,0,0,1,3,2.36A16.86,16.86,0,0,1,113,95c1.73,5.35,1.47,12.05-1.08,19-3.32,8.74-9.76,15.5-16.52,18.69v.19c-1.47.45-38.59,17.28-40,17.86-.13,0-.32-.07-.38,0a.79.79,0,0,0-.38.13,11.59,11.59,0,0,1-5.3.06c-10.59-4.53-21.94-10.72-27.61-13.71-7-1.72-9.7-10.46-6.19-19.52,1.78-4.91,4-8.93,7.21-11.8L53.13,79.81A33.27,33.27,0,0,1,57,76.11C61.8,72.15,67.29,69.92,72.52,70.43Z"/><path id="p4080-79-8-3" class="cls-3" d="M57.72,119,26.21,104.81"/><path id="p4082-5-3-6" class="cls-4" d="M68.88,106.78,39,92.82"/><path id="p4084-5-3-8" class="cls-5" d="M82.4,96.64,50.9,81.85"/><path id="p7129-9" class="cls-6" d="M17.28,113.55l50.9,24.36s1,5.42,1.21,6.5c-6.25,2.75-13.65,6.06-14.09,6.25-.13.07-.26,0-.32,0a.86.86,0,0,1-.38.13,9.67,9.67,0,0,1-5.23,0c-10.59-4.46-21.94-10.59-27.62-13.58-6.95-1.72-9.76-10.46-6.32-19.58C16,116.16,16.65,114.88,17.28,113.55Z"/><path id="p4078-2-4-8-0" class="cls-7" d="M46,132.62l-30.3-14.36"/><path id="p7131-2" class="cls-8" d="M14.41,121.71l52.24,23.85c-4.53,2-11,5-11.35,5.1-.13.07-.26,0-.32,0a.86.86,0,0,1-.38.13,9.67,9.67,0,0,1-5.23,0c-10.59-4.46-21.94-10.59-27.62-13.58C15.88,135.8,13.07,129.17,14.41,121.71Z"/><path id="p4076-6-5-6-2" class="cls-9" d="M45.67,144.22l-31.26-15.5"/><path id="p4078-4-2-8" class="cls-10" d="M47.2,130.57,16.9,116.29"/><path id="p4084-9-2-2-2" class="cls-11" d="M94.71,88.16,62.82,73.3"/><path id="p3881-5-2-4-3-0-5" class="cls-12" d="M72.52,70.43a8.93,8.93,0,0,1,2.17.45c17.47,7.65,18.36,8.73,31.25,15a13.75,13.75,0,0,1,3,2.36A16.86,16.86,0,0,1,113,95c1.73,5.35,1.47,12.05-1.08,19-3.32,8.74-9.76,15.5-16.52,18.69v.19c-1.47.45-38.59,17.28-40,17.86-.13,0-.32-.07-.38,0a.79.79,0,0,0-.38.13,11.59,11.59,0,0,1-5.3.06c-10.59-4.53-21.94-10.72-27.61-13.71-7-1.72-9.7-10.46-6.19-19.52,1.78-4.91,4-8.93,7.21-11.8L53.13,79.81A33.27,33.27,0,0,1,57,76.11C61.8,72.15,67.29,69.92,72.52,70.43Z"/><path id="p4502-0-2-5" class="cls-13" d="M211.68,85.35c.32.13,6.25,3.7,6.64,3.9v38.07l-33.49,16.9c-.44-.25-6.31-3.76-6.63-3.89V102.19Z"/><path id="p4502-0-16" class="cls-14" d="M218.32,89.25v38.07l-33.49,16.9V106.08l33.49-16.83Z"/><path id="p4502-0-2-5-1" class="cls-15" d="M211.68,85.35c.32.13,6.25,3.7,6.64,3.9v38.07l-33.49,16.9c-.44-.25-6.31-3.76-6.63-3.89V102.19Z"/><path id="p2993-7-4" class="cls-16" d="M116.84,63.67l79,39.54V153.6l-79,39.48-79-39.48V103.21Z"/><path id="p4502-88" class="cls-14" d="M169,89.82l26.85,13.46v50.38L117.23,193V132.36Z"/><path id="p2993-7-9-85" class="cls-13" d="M116.84,142.69l79-39.48-79-39.54-79,39.54Z"/><path id="p3111-7" class="cls-17" d="M117.23,143.52v48.73"/><path id="p2993-7-9-7-2" class="cls-18" d="M90.18,94.28l46.69,23.16L101.6,135.1,55,111.82l35.2-17.54Z"/><path id="p2993-7-9-4-2" class="cls-19" d="M37.82,103.21l79,39.48,79-39.48"/><path id="p4705-2" class="cls-20" d="M160.79,149V132.93l-27.43,13.72v13.26"/><path id="p2993-7-3-0" class="cls-21" d="M116.84,63.67l79,39.54V153.6l-79,39.48-79-39.48V103.21Z"/><path id="p4109-9" class="cls-22" d="M124.5,56.46C134,56,145.29,60.74,151.41,68c5.49,6.44,6.57,12.5,4.15,16.52,1.85,9,.38,16.39-9.57,18.56s-23.72-2.75-30.8-11c-5.43-6.44-5.23-11.54-4.53-17,.32-10,.06-16,10-18.12a19.41,19.41,0,0,1,3.83-.51Z"/><path id="p2993-7-9-8-7" class="cls-16" d="M121.5.46l79,39.48V76L158.94,96.77,80,57.29V21.19Z"/><path id="p4170-3" class="cls-14" d="M182.6,30.89l17.86,9V76L159.13,96.77V52.83l-.57-1.66Z"/><path id="p5148-5" class="cls-23" d="M159.19,60.8V94.73"/><path id="p2993-7-9-8-8-7" class="cls-13" d="M121.5.46l79,39.48-41.52,20.8L80,21.19Z"/><path id="p2993-7-9-8-8-57-8" class="cls-24" d="M200.46,39.94l-41.52,20.8L80,21.19"/><path id="p2993-7-9-8-2-7" class="cls-21" d="M121.5.46l79,39.48V76L158.94,96.77,80,57.29V21.19Z"/><path id="p3881-5-2-4-3" class="cls-2" d="M180.37,125.15a14,14,0,0,1,2.17.45c17.47,7.65,18.37,8.74,31.31,15.05a12.75,12.75,0,0,1,3,2.3,17.67,17.67,0,0,1,4,6.82c1.72,5.36,1.53,12.12-1.09,18.94-3.31,8.81-9.69,15.63-16.58,18.69v.19c-1.4.51-38.58,17.41-40,17.86-.13.07-.19,0-.32,0s-.25.19-.38.26a12.74,12.74,0,0,1-5.36,0c-10.52-4.47-21.87-10.78-27.61-13.72-6.89-1.72-9.63-10.46-6.13-19.51,1.85-4.85,4-9,7.21-11.87l30.42-26a31.06,31.06,0,0,1,3.83-3.7C169.72,126.87,175.14,124.64,180.37,125.15Z"/><path id="p4080-79-8" class="cls-3" d="M165.64,173.75l-31.58-14.16"/><path id="p4082-5-3" class="cls-4" d="M176.8,161.63,147,147.48"/><path id="p4084-5-3" class="cls-5" d="M190.32,151.49l-31.45-14.92"/><path id="p7129" class="cls-6" d="M125.2,168.33l50.9,24.37s1,5.48,1.14,6.44c-6.18,2.87-13.58,6.18-14.09,6.31-.13.07-.19-.06-.32,0s-.19.19-.32.19a10.53,10.53,0,0,1-5.29,0C146.63,201.18,135.34,195,129.6,192c-6.89-1.72-9.69-10.46-6.25-19.51A27.47,27.47,0,0,1,125.2,168.33Z"/><path id="p4078-2-4-8" class="cls-7" d="M153.9,187.4l-30.36-14.28"/><path id="p4076-6-5-6" class="cls-9" d="M153.52,199l-31.25-15.5"/><path id="p4078-4-2" class="cls-10" d="M155.11,185.36l-30.29-14.29"/><path id="p4076-2-4" class="cls-8" d="M153.64,196.52l-31.18-15.43"/><path id="p4084-9-2-2" class="cls-11" d="M202.63,143,170.74,128"/><path id="p3881-5-2-4" class="cls-25" d="M162.45,205.71a12.74,12.74,0,0,1-5.36,0c-6.89-1.73-9.57-10.53-6.12-19.58,1.85-4.91,4.14-9,7.27-11.87l30.29-26a35.51,35.51,0,0,1,4-3.63c5.55-4.6,11.93-6.89,17.67-5.43,10.46,2.62,14.67,15.89,9.44,29.6-3.32,8.8-9.7,15.5-16.52,18.62l.06.13c-1.4.51-38.65,17.47-40,17.92-.13.07-.19.07-.32.13s-.26.06-.38.13Z"/><path id="p3881-5-2-4-3-0" class="cls-12" d="M180.37,125.15a14,14,0,0,1,2.17.45c17.47,7.65,18.37,8.74,31.31,15.05a12.75,12.75,0,0,1,3,2.3,17.67,17.67,0,0,1,4,6.82c1.72,5.36,1.53,12.12-1.09,18.94-3.31,8.81-9.69,15.63-16.58,18.69v.19c-1.4.51-38.58,17.41-40,17.86-.13.07-.19,0-.32,0s-.25.19-.38.26a12.74,12.74,0,0,1-5.36,0c-10.52-4.47-21.87-10.78-27.61-13.72-6.89-1.72-9.63-10.46-6.13-19.51,1.85-4.85,4-9,7.21-11.87l30.42-26a31.06,31.06,0,0,1,3.83-3.7C169.72,126.87,175.14,124.64,180.37,125.15Z"/><path id="p3881-5-2-4-6" class="cls-26" d="M167.55,200.41a13.71,13.71,0,0,1-4.85.83c-6.38-.25-9.5-6-7.08-12.88a21.78,21.78,0,0,1,5.68-9.25l25.51-22.51a38.31,38.31,0,0,1,3.32-3.13c4.65-3.95,10.27-6.44,15.69-6.31,9.69.38,14.47,9.05,10.84,19.32a29.18,29.18,0,0,1-13.59,15.37l.07.07c-1.28.57-33.74,17.73-34.89,18.24-.13.06-.25.06-.38.13s-.19.06-.32.12Z"/><path id="p3881-5-2-4-6-7" class="cls-14" d="M204.86,147.22a17.05,17.05,0,0,1-.7,10.72,28.34,28.34,0,0,1-13.59,15.3l.13.26c-1.21.44-33.67,17.66-34.82,18.17a2.32,2.32,0,0,0-.39.2c-.06.06-.25-.07-.31,0H155a12.67,12.67,0,0,1,.71-3.38c1.27-3.7,2.93-7,5.61-9.38l25.51-22.51a30.25,30.25,0,0,1,3.25-3.07C194.46,149.77,199.76,147.35,204.86,147.22Z"/><path id="p3881-7-2-2" class="cls-27" d="M202.5,147.6a3.78,3.78,0,0,1,.51.19,57.48,57.48,0,0,1,6.76,3.38c4.53,2.75,4.4,10.08-.13,16.46s-11.67,9.31-16.2,6.51c-2.87-1.79-4.46-2-6.63-3.38-3.44-2.17-4.27-7-2.36-12.12l2.36-2a30.25,30.25,0,0,1,3.25-3.07A25.64,25.64,0,0,1,202.5,147.6Z"/><path id="p3881-7-2" class="cls-14" d="M194,172.73c4.4,2.68,11.48-.19,15.88-6.44s4.41-13.52,0-16.26-11.54.19-15.88,6.44-4.4,13.52,0,16.26Z"/><path id="p3881-7-2-2-4" class="cls-28" d="M202.5,147.6a3.78,3.78,0,0,1,.51.19,57.48,57.48,0,0,1,6.76,3.38c4.53,2.75,4.4,10.08-.13,16.46s-11.67,9.31-16.2,6.51c-2.87-1.79-4.46-2-6.63-3.38-3.44-2.17-4.27-7-2.36-12.12"/><path id="p3881-7-2-6-3" class="cls-27" d="M173.86,168.84a5.26,5.26,0,0,1,2.62.7c1.4.71,2.49,1.47,3.7,2.17,3.06,1.92,3.06,7.08,0,11.48s-8.17,6.32-11.23,4.4c-1.4-.44-2.36-1.46-3.57-2.23-2.42-1.53-3-5-1.53-8.67l8.87-7.66A7.53,7.53,0,0,1,173.86,168.84Z"/><path id="p3881-7-2-6" class="cls-14" d="M169.4,185.55c2.93,1.79,7.78-.19,10.78-4.4s2.93-9.12,0-11-7.85.19-10.78,4.4-3,9.12,0,11Z"/><path id="p3881-7-2-6-3-8" class="cls-28" d="M172.72,169a7.53,7.53,0,0,1,1.14-.19,5.26,5.26,0,0,1,2.62.7c1.4.71,2.49,1.47,3.7,2.17,3.06,1.92,3.06,7.08,0,11.48s-8.17,6.32-11.23,4.4c-1.4-.44-2.36-1.46-3.57-2.23-2.42-1.53-3-5-1.53-8.67"/><path id="p3881-5-2-4-6-5" class="cls-28" d="M167.55,200.41a13.71,13.71,0,0,1-4.85.83c-6.38-.25-9.5-6-7.08-12.88a21.78,21.78,0,0,1,5.68-9.25l25.51-22.51a38.31,38.31,0,0,1,3.32-3.13c4.65-3.95,10.27-6.44,15.69-6.31,9.69.38,14.47,9.05,10.84,19.32a29.18,29.18,0,0,1-13.59,15.37l.07.07c-1.28.57-33.74,17.73-34.89,18.24-.13.06-.25.06-.38.13s-.19.06-.32.12Z"/><path id="p3881-7-3-1-5-5" class="cls-29" d="M171.31,183.64c1.72,1.15,4.47,0,6.19-2.49s1.72-5.48.06-6.57-4.4,0-6.12,2.49-1.79,5.48-.13,6.57Z"/><path id="p3881-7-3-1-6-5-5" class="cls-26" d="M176.1,174.58c.76,1.41.57,3.57-.83,5.61a6.83,6.83,0,0,1-4.79,3.07h-.19c-.76-1.47-.38-3.83,1-5.81A6.84,6.84,0,0,1,176.1,174.58Z"/></svg>