<svg id="svg2985" xmlns="http://www.w3.org/2000/svg" viewBox="0 0 255.5 217.63"><defs><style>.cls-1{fill:#838383;}.cls-2{fill:#989898;}.cls-10,.cls-11,.cls-12,.cls-15,.cls-17,.cls-18,.cls-19,.cls-20,.cls-21,.cls-23,.cls-24,.cls-28,.cls-3,.cls-4,.cls-5,.cls-7,.cls-9{fill:none;}.cls-10,.cls-11,.cls-3,.cls-4,.cls-5{stroke:#555;}.cls-11,.cls-15,.cls-22,.cls-3,.cls-4,.cls-9{stroke-linecap:round;}.cls-3{stroke-width:0.51px;}.cls-23,.cls-24,.cls-4,.cls-9{stroke-width:0.42px;}.cls-11,.cls-5{stroke-width:0.34px;}.cls-6{fill:#6c6c6c;}.cls-7{stroke:#959595;}.cls-10,.cls-7{stroke-width:0.58px;}.cls-8{fill:#7a7a7a;}.cls-9{stroke:#949494;}.cls-12,.cls-15,.cls-21,.cls-22,.cls-28{stroke:#515151;}.cls-12{stroke-width:0.57px;}.cls-13{fill:#bababa;}.cls-14{fill:#595959;}.cls-15,.cls-22{stroke-width:0.5px;}.cls-16{fill:#999;}.cls-17,.cls-23{stroke:#7e7e7e;}.cls-17{stroke-width:1.28px;}.cls-18{stroke:#454545;stroke-width:0.33px;}.cls-19,.cls-24{stroke:#c5c5c5;}.cls-19,.cls-20,.cls-24{stroke-linejoin:bevel;}.cls-19{stroke-width:0.85px;}.cls-20{stroke:#797979;}.cls-20,.cls-28{stroke-width:0.25px;}.cls-21{stroke-width:0.83px;}.cls-22,.cls-26{fill:#515151;}.cls-25{fill:#616161;}.cls-27{fill:#707070;}.cls-29{fill:#535353;}</style></defs><title>Artboard 1n</title><path id="p5953" class="cls-1" d="M79.47,114.76,13.52,139.69.19,146.26l17.35,8.55L0,164.63l106,53,9.57-3,25.13-13.59,7.33,5.42,66.78-31.7-10.33-4.59,51-25.89-49.62-27.11-79.72,18.31Z"/><path id="p3881-5-2-4-3-07" class="cls-2" d="M193.83,70.43a8.74,8.74,0,0,0-2.17.45c-17.48,7.65-18.37,8.73-31.25,15a13.29,13.29,0,0,0-3,2.36,16.77,16.77,0,0,0-4,6.77c-1.72,5.35-1.47,12.05,1.08,19,3.32,8.74,9.76,15.5,16.52,18.69v.19c1.47.45,38.59,17.28,40,17.86.13,0,.32-.07.39,0a.86.86,0,0,1,.38.13,11.55,11.55,0,0,0,5.29.06c10.59-4.53,21.94-10.72,27.62-13.71,7-1.72,9.69-10.46,6.18-19.52-1.78-4.91-4-8.93-7.2-11.8L213.22,79.81a34.1,34.1,0,0,0-3.83-3.7C204.54,72.15,199.06,69.92,193.83,70.43Z"/><path id="p4080-79-8-3" class="cls-3" d="M208.62,119l31.51-14.16"/><path id="p4082-5-3-6" class="cls-4" d="M197.46,106.78l29.85-14"/><path id="p4084-5-3-8" class="cls-5" d="M183.94,96.64l31.51-14.79"/><path id="p7129-9" class="cls-6" d="M249.06,113.55l-50.9,24.36s-1,5.42-1.21,6.5c6.25,2.75,13.65,6.06,14.1,6.25.12.07.25,0,.32,0a.79.79,0,0,0,.38.13,9.67,9.67,0,0,0,5.23,0c10.59-4.46,21.94-10.59,27.61-13.58,7-1.72,9.76-10.46,6.32-19.58C250.33,116.16,249.7,114.88,249.06,113.55Z"/><path id="p4078-2-4-8-0" class="cls-7" d="M220.36,132.62l30.29-14.36"/><path id="p7131-2" class="cls-8" d="M251.93,121.71l-52.24,23.85c4.53,2,11,5,11.36,5.1.12.07.25,0,.32,0a.79.79,0,0,0,.38.13,9.67,9.67,0,0,0,5.23,0c10.59-4.46,21.94-10.59,27.61-13.58C250.46,135.8,253.27,129.17,251.93,121.71Z"/><path id="p4076-6-5-6-2" class="cls-9" d="M220.68,144.22l31.25-15.5"/><path id="p4078-4-2-8" class="cls-10" d="M219.15,130.57l30.29-14.28"/><path id="p4084-9-2-2-2" class="cls-11" d="M171.63,88.16,203.52,73.3"/><path id="p3881-5-2-4-3-0-5" class="cls-12" d="M193.83,70.43a8.74,8.74,0,0,0-2.17.45c-17.48,7.65-18.37,8.73-31.25,15a13.29,13.29,0,0,0-3,2.36,16.77,16.77,0,0,0-4,6.77c-1.72,5.35-1.47,12.05,1.08,19,3.32,8.74,9.76,15.5,16.52,18.69v.19c1.47.45,38.59,17.28,40,17.86.13,0,.32-.07.39,0a.86.86,0,0,1,.38.13,11.55,11.55,0,0,0,5.29.06c10.59-4.53,21.94-10.72,27.62-13.71,7-1.72,9.69-10.46,6.18-19.52-1.78-4.91-4-8.93-7.2-11.8L213.22,79.81a34.1,34.1,0,0,0-3.83-3.7C204.54,72.15,199.06,69.92,193.83,70.43Z"/><path id="p4502-0-2-5" class="cls-13" d="M54.66,85.35c-.32.13-6.25,3.7-6.63,3.9v38.07l33.48,16.9c.45-.25,6.31-3.76,6.63-3.89V102.19Z"/><path id="p4502-0-16" class="cls-14" d="M48,89.25v38.07l33.48,16.9V106.08L48,89.25Z"/><path id="p4502-0-2-5-1" class="cls-15" d="M54.66,85.35c-.32.13-6.25,3.7-6.63,3.9v38.07l33.48,16.9c.45-.25,6.31-3.76,6.63-3.89V102.19Z"/><path id="p2993-7-4" class="cls-16" d="M149.5,63.67l-79,39.54V153.6l79,39.48,79-39.48V103.21Z"/><path id="p4502-88" class="cls-14" d="M97.33,89.82,70.48,103.28v50.38L149.12,193V132.36Z"/><path id="p2993-7-9-85" class="cls-13" d="M149.5,142.69l-79-39.48,79-39.54,79,39.54Z"/><path id="p3111-7" class="cls-17" d="M149.12,143.52v48.73"/><path id="p2993-7-9-7-2" class="cls-18" d="M176.16,94.28l-46.69,23.16,35.27,17.66,46.63-23.28L176.16,94.28Z"/><path id="p2993-7-9-4-2" class="cls-19" d="M228.52,103.21l-79,39.48-79-39.48"/><path id="p4705-2" class="cls-20" d="M105.56,149V132.93L133,146.65v13.26"/><path id="p2993-7-3-0" class="cls-21" d="M149.5,63.67l-79,39.54V153.6l79,39.48,79-39.48V103.21Z"/><path id="p4109-9" class="cls-22" d="M141.85,56.46c-9.51-.44-20.8,4.28-26.92,11.55-5.48,6.44-6.57,12.5-4.14,16.52-1.85,9-.39,16.39,9.56,18.56s23.73-2.75,30.81-11c5.42-6.44,5.23-11.54,4.53-17-.32-10-.07-16-10-18.12a19.41,19.41,0,0,0-3.82-.51Z"/><path id="p2993-7-9-8-7" class="cls-16" d="M144.84.46l-79,39.48V76L107.4,96.77l79-39.48V21.19Z"/><path id="p4170-3" class="cls-14" d="M83.74,30.89l-17.86,9V76l41.33,20.73V52.83l.58-1.66Z"/><path id="p5148-5" class="cls-23" d="M107.15,60.8V94.73"/><path id="p2993-7-9-8-8-7" class="cls-13" d="M144.84.46l-79,39.48,41.52,20.8,79-39.55Z"/><path id="p2993-7-9-8-8-57-8" class="cls-24" d="M65.88,39.94l41.52,20.8,79-39.55"/><path id="p2993-7-9-8-2-7" class="cls-21" d="M144.84.46l-79,39.48V76L107.4,96.77l79-39.48V21.19Z"/><path id="p3881-5-2-4-3" class="cls-2" d="M86,125.15a13.83,13.83,0,0,0-2.16.45c-17.48,7.65-18.37,8.74-31.32,15.05a13.17,13.17,0,0,0-3,2.3,17.92,17.92,0,0,0-4,6.82c-1.72,5.36-1.53,12.12,1.09,18.94,3.32,8.81,9.69,15.63,16.58,18.69v.19c1.4.51,38.59,17.41,40,17.86.13.07.19,0,.32,0s.26.19.38.26a12.74,12.74,0,0,0,5.36,0c10.52-4.47,21.88-10.78,27.62-13.72,6.89-1.72,9.63-10.46,6.12-19.51-1.85-4.85-4-9-7.21-11.87l-30.42-26a29.71,29.71,0,0,0-3.83-3.7C96.63,126.87,91.2,124.64,86,125.15Z"/><path id="p4080-79-8" class="cls-3" d="M100.71,173.75l31.57-14.16"/><path id="p4082-5-3" class="cls-4" d="M89.55,161.63l29.85-14.15"/><path id="p4084-5-3" class="cls-5" d="M76,151.49l31.44-14.92"/><path id="p7129" class="cls-6" d="M141.14,168.33,90.25,192.7s-1,5.48-1.15,6.44c6.19,2.87,13.59,6.18,14.1,6.31.12.07.19-.06.31,0s.2.19.32.19a10.57,10.57,0,0,0,5.3,0C119.71,201.18,131,195,136.74,192c6.89-1.72,9.7-10.46,6.25-19.51A26.51,26.51,0,0,0,141.14,168.33Z"/><path id="p4078-2-4-8" class="cls-7" d="M112.44,187.4l30.36-14.28"/><path id="p4076-6-5-6" class="cls-9" d="M112.83,199l31.25-15.5"/><path id="p4078-4-2" class="cls-10" d="M111.23,185.36l30.3-14.29"/><path id="p4076-2-4" class="cls-8" d="M112.7,196.52l31.19-15.43"/><path id="p4084-9-2-2" class="cls-11" d="M63.72,143,95.61,128"/><path id="p3881-5-2-4" class="cls-25" d="M103.9,205.71a12.7,12.7,0,0,0,5.35,0c6.89-1.73,9.57-10.53,6.13-19.58-1.85-4.91-4.15-9-7.27-11.87l-30.3-26a34.67,34.67,0,0,0-4-3.63c-5.55-4.6-11.92-6.89-17.66-5.43-10.46,2.62-14.67,15.89-9.44,29.6,3.31,8.8,9.69,15.5,16.52,18.62l-.07.13c1.4.51,38.65,17.47,40.06,17.92.12.07.19.07.31.13s.26.06.39.13Z"/><path id="p3881-5-2-4-3-0" class="cls-12" d="M86,125.15a13.83,13.83,0,0,0-2.16.45c-17.48,7.65-18.37,8.74-31.32,15.05a13.17,13.17,0,0,0-3,2.3,17.92,17.92,0,0,0-4,6.82c-1.72,5.36-1.53,12.12,1.09,18.94,3.32,8.81,9.69,15.63,16.58,18.69v.19c1.4.51,38.59,17.41,40,17.86.13.07.19,0,.32,0s.26.19.38.26a12.74,12.74,0,0,0,5.36,0c10.52-4.47,21.88-10.78,27.62-13.72,6.89-1.72,9.63-10.46,6.12-19.51-1.85-4.85-4-9-7.21-11.87l-30.42-26a29.71,29.71,0,0,0-3.83-3.7C96.63,126.87,91.2,124.64,86,125.15Z"/><path id="p3881-5-2-4-6" class="cls-26" d="M98.79,200.41a13.74,13.74,0,0,0,4.85.83c6.38-.25,9.5-6,7.08-12.88a21.68,21.68,0,0,0-5.68-9.25L79.53,156.6a38.16,38.16,0,0,0-3.31-3.13C71.56,149.52,66,147,60.53,147.16c-9.7.38-14.48,9.05-10.85,19.32a29.22,29.22,0,0,0,13.59,15.37l-.06.07c1.27.57,33.73,17.73,34.88,18.24.13.06.26.06.39.13s.19.06.31.12Z"/><path id="p3881-5-2-4-6-7" class="cls-14" d="M61.48,147.22a17.06,17.06,0,0,0,.71,10.72,28.28,28.28,0,0,0,13.58,15.3l-.13.26c1.21.44,33.68,17.66,34.83,18.17a2.19,2.19,0,0,1,.38.2c.06.06.25-.07.32,0h.19a13.05,13.05,0,0,0-.7-3.38c-1.28-3.7-2.94-7-5.62-9.38L79.53,156.6a29.34,29.34,0,0,0-3.25-3.07C71.88,149.77,66.59,147.35,61.48,147.22Z"/><path id="p3881-7-2-2" class="cls-27" d="M63.84,147.6a4.35,4.35,0,0,0-.51.19,57.48,57.48,0,0,0-6.76,3.38c-4.53,2.75-4.4,10.08.13,16.46s11.67,9.31,16.2,6.51c2.87-1.79,4.46-2,6.63-3.38,3.45-2.17,4.28-7,2.36-12.12l-2.36-2a29.34,29.34,0,0,0-3.25-3.07A25.64,25.64,0,0,0,63.84,147.6Z"/><path id="p3881-7-2" class="cls-14" d="M72.39,172.73c-4.4,2.68-11.48-.19-15.88-6.44s-4.4-13.52,0-16.26,11.54.19,15.88,6.44,4.4,13.52,0,16.26Z"/><path id="p3881-7-2-2-4" class="cls-28" d="M63.84,147.6a4.35,4.35,0,0,0-.51.19,57.48,57.48,0,0,0-6.76,3.38c-4.53,2.75-4.4,10.08.13,16.46s11.67,9.31,16.2,6.51c2.87-1.79,4.46-2,6.63-3.38,3.45-2.17,4.28-7,2.36-12.12"/><path id="p3881-7-2-6-3" class="cls-27" d="M92.48,168.84a5.19,5.19,0,0,0-2.61.7c-1.41.71-2.49,1.47-3.7,2.17-3.07,1.92-3.07,7.08,0,11.48s8.16,6.32,11.22,4.4c1.4-.44,2.36-1.46,3.57-2.23,2.43-1.53,3-5,1.53-8.67L93.63,169A7.66,7.66,0,0,0,92.48,168.84Z"/><path id="p3881-7-2-6" class="cls-14" d="M96.94,185.55c-2.93,1.79-7.78-.19-10.77-4.4s-2.94-9.12,0-11,7.84.19,10.77,4.4,3,9.12,0,11Z"/><path id="p3881-7-2-6-3-8" class="cls-28" d="M93.63,169a7.66,7.66,0,0,0-1.15-.19,5.19,5.19,0,0,0-2.61.7c-1.41.71-2.49,1.47-3.7,2.17-3.07,1.92-3.07,7.08,0,11.48s8.16,6.32,11.22,4.4c1.4-.44,2.36-1.46,3.57-2.23,2.43-1.53,3-5,1.53-8.67"/><path id="p3881-5-2-4-6-5" class="cls-28" d="M98.79,200.41a13.74,13.74,0,0,0,4.85.83c6.38-.25,9.5-6,7.08-12.88a21.68,21.68,0,0,0-5.68-9.25L79.53,156.6a38.16,38.16,0,0,0-3.31-3.13C71.56,149.52,66,147,60.53,147.16c-9.7.38-14.48,9.05-10.85,19.32a29.22,29.22,0,0,0,13.59,15.37l-.06.07c1.27.57,33.73,17.73,34.88,18.24.13.06.26.06.39.13s.19.06.31.12Z"/><path id="p3881-7-3-1-5-5" class="cls-29" d="M95,183.64c-1.72,1.15-4.46,0-6.19-2.49s-1.72-5.48-.06-6.57,4.4,0,6.12,2.49,1.79,5.48.13,6.57Z"/><path id="p3881-7-3-1-6-5-5" class="cls-26" d="M90.25,174.58c-.77,1.41-.58,3.57.83,5.61a6.84,6.84,0,0,0,4.78,3.07h.19c.77-1.47.38-3.83-1-5.81A6.82,6.82,0,0,0,90.25,174.58Z"/></svg>