<svg id="svg2985" xmlns="http://www.w3.org/2000/svg" viewBox="0 0 233.49 199.26"><defs><style>.cls-1{fill:#838383;}.cls-2{fill:#989898;}.cls-10,.cls-14,.cls-15,.cls-16,.cls-17,.cls-18,.cls-20,.cls-21,.cls-22,.cls-23,.cls-29,.cls-3,.cls-30,.cls-31,.cls-32,.cls-34,.cls-6,.cls-7,.cls-8,.cls-9{fill:none;}.cls-22,.cls-23,.cls-3,.cls-6,.cls-8{stroke:#555;}.cls-19,.cls-23,.cls-3,.cls-32,.cls-34,.cls-6,.cls-9{stroke-linecap:round;}.cls-20,.cls-21,.cls-3,.cls-30,.cls-31{stroke-width:0.41px;}.cls-4{fill:#6c6c6c;}.cls-5{fill:#535353;}.cls-19,.cls-32,.cls-6,.cls-9{stroke-width:0.5px;}.cls-7{stroke:#959595;}.cls-10,.cls-7,.cls-8{stroke-width:0.57px;}.cls-9{stroke:#949494;}.cls-10,.cls-18,.cls-19,.cls-29,.cls-31,.cls-32{stroke:#515151;}.cls-11{fill:#999;}.cls-12{fill:#595959;}.cls-13{fill:#bababa;}.cls-14,.cls-20{stroke:#7e7e7e;}.cls-14{stroke-width:1.25px;}.cls-15{stroke:#454545;}.cls-15,.cls-22,.cls-23{stroke-width:0.33px;}.cls-16,.cls-21{stroke:#c5c5c5;}.cls-16,.cls-17,.cls-21{stroke-linejoin:bevel;}.cls-16,.cls-18{stroke-width:0.83px;}.cls-17{stroke:#797979;}.cls-17,.cls-29{stroke-width:0.25px;}.cls-19,.cls-27{fill:#515151;}.cls-24{fill:#888;}.cls-25{fill:#7a7a7a;}.cls-26{fill:#616161;}.cls-28{fill:#707070;}.cls-30{stroke:#bababa;}.cls-33{fill:#505050;}.cls-34{stroke:#6d6d6d;stroke-width:1.16px;}</style></defs><title>Artboard 1s</title><path id="p5953" class="cls-1" d="M87.82,106.85,6.76,137.46,25.89,147,0,161.38l75.32,37.88,12.57-9.37,12.37,6.76,22.52-13.59,34.95,14.16,65.37-30.36Z"/><path id="p3881-2-7" class="cls-2" d="M163.79,67.69c-3.64.13-6.76,2.48-10,3.82-5.61,2.43-10.27,4.92-15.56,7.28-3,1.46-6.19,2.74-9.18,4.14-5,3.64-4.28,10.91-2,15.88a29.11,29.11,0,0,0,14.16,15c10.9,5.11,22.07,10.72,32.59,16.71,6,3.64,13.9,6.64,20.47,3,10.08-5,20.6-9.37,30.43-14.22,6.05-4,6.88-12.37,5.16-18.88C226.8,88.61,217.36,78,205.18,75c-4.21-1.08-9.06-1.66-13.52-2.55-9.25-1.53-18.56-3.51-27.87-4.78Z"/><path id="p4082-6-4" class="cls-3" d="M168.06,88.48l29.21-13.84"/><path id="p4122-0-1" class="cls-4" d="M223.87,88l-32.79,15.56s-14.22,11.55-26.85,21.88c3.19,1.66,6.44,3.38,9.51,5.16,6,3.64,13.9,6.64,20.53,3,4.34-2,8.74-4.08,13.08-6.18.12-.07.32-.13.44-.2.45-.19,1-.44,1.34-.63s.51-.07.64-.13c5-2.3,10-4.66,14.93-7.08,6-4,6.82-12.37,5.16-18.88a38.43,38.43,0,0,0-6-12.5Z"/><path id="p4239-2-9" class="cls-5" d="M230.05,101,168.76,127.9c1.66.89,3.38,1.78,5,2.67,6,3.64,13.9,6.64,20.53,3,4.34-2,8.74-4.08,13.08-6.18.12-.07.32-.13.44-.2.45-.19,1-.44,1.34-.63s.51-.07.64-.13c5-2.3,10-4.66,14.93-7.08,5.86-3.89,6.82-12,5.35-18.31Z"/><path id="p4080-7-3" class="cls-6" d="M184.77,94.35,215.7,80.44"/><path id="p4078-2-1-7" class="cls-7" d="M197.91,110.36l29.66-14"/><path id="p4078-5-9" class="cls-8" d="M196.63,108.32l29.72-14"/><path id="p4076-6-9-2" class="cls-9" d="M198.74,125.41l30.61-14.16"/><path id="p4076-7-4" class="cls-6" d="M198.61,123l30.61-14.22"/><path id="p3881-6-0-0" class="cls-10" d="M163.79,67.69c-3.64.13-6.76,2.48-10,3.82-5.61,2.43-10.27,4.92-15.56,7.28-3,1.46-6.19,2.74-9.18,4.14-5,3.64-4.28,10.91-2,15.88a29.11,29.11,0,0,0,14.16,15c10.9,5.11,22.07,10.72,32.59,16.71,6,3.64,13.9,6.64,20.47,3,10.27-5,20.73-9.44,30.43-14.22,6.05-4,6.88-12.37,5.16-18.88C226.8,88.61,217.36,78,205.18,75c-4.21-1.08-9.06-1.66-13.52-2.55-9.25-1.53-18.56-3.51-27.87-4.78Z"/><path id="p2993-7-32" class="cls-11" d="M132.34,46.9,54.85,85.61V135l77.49,38.78L209.83,135V85.61Z"/><path id="p4502-8" class="cls-12" d="M81.26,72.47,54.85,85.61V135L132,173.63V114.25L81.26,72.47Z"/><path id="p2993-7-9-49" class="cls-13" d="M132.34,124.39,54.85,85.61,132.34,46.9l77.49,38.71Z"/><path id="p3111-6" class="cls-14" d="M132,125.15v47.77"/><path id="p2993-7-9-7-0" class="cls-15" d="M119.46,53.34,73.73,76,108.3,93.45l45.79-22.89Z"/><path id="p2993-7-9-4-0" class="cls-16" d="M209.83,85.61l-77.49,38.78L54.85,85.61"/><path id="p4705-4" class="cls-17" d="M68.05,118.84V103l27,13.52v13"/><path id="p2993-7-3-6" class="cls-18" d="M132.34,46.9,54.85,85.61V135l77.49,38.78L209.83,135V85.61Z"/><path id="p4109-4" class="cls-19" d="M162.38,58.5c-9.25-.32-20.28,4.28-26.34,11.42-5.36,6.31-6.38,12.18-4,16.2-1.91,8.87-.38,16.07,9.38,18.24s23.28-2.74,30.17-10.91c5.35-6.25,5.1-11.35,4.53-16.64-.32-9.7-.13-15.63-9.83-17.73a26,26,0,0,0-3.89-.58Z"/><path id="p2993-7-9-8-29" class="cls-11" d="M182.79.46,105.3,39.18v35.4L146.06,95l77.49-38.78V20.81Z"/><path id="p2993-7-9-8-8-5-59" class="cls-13" d="M217.55,28.34,150.77,61.76V84.91l66.78-33.36Z"/><path id="p4170-7" class="cls-12" d="M122.84,30.31,105.3,39.18v35.4L145.86,95V51.87l.51-1.66Z"/><path id="p5148-2" class="cls-20" d="M145.86,59.65V93"/><path id="p2993-7-9-8-8-51" class="cls-13" d="M182.73.46,105.3,39.18l40.76,20.34,77.49-38.71Z"/><path id="p2993-7-9-8-8-57-9" class="cls-21" d="M105.3,39.18l40.76,20.34,77.49-38.71"/><path id="p2993-7-9-8-2-6" class="cls-18" d="M182.79.46,105.3,39.18v35.4L146.06,95l77.49-38.78V20.81Z"/><path id="p2993-7-9-8-8-5-5-0" class="cls-12" d="M217.55,28.34l-23,11.48,23,11.41Z"/><path id="p3881-3" class="cls-2" d="M60.08,115c-3.64.19-6.7,2.55-10,3.83-5.55,2.42-10.27,5-15.57,7.4-3,1.46-6.18,2.68-9.18,4.14-5,3.64-4.27,10.85-2,15.88A29.68,29.68,0,0,0,37.5,161.32C48.41,166.42,59.57,172,70.09,178c5.94,3.63,13.84,6.63,20.54,3,10.08-5,20.6-9.37,30.42-14.22,6-4.08,6.89-12.37,5.17-18.88-3.13-11.92-12.56-22.58-24.75-25.51-4.14-1.08-9-1.59-13.52-2.55-9.25-1.53-18.56-3.57-27.87-4.85Z"/><path id="p4084-7" class="cls-22" d="M46.62,132.93l30.87-14.6"/><path id="p4084-9-0" class="cls-23" d="M33.74,130.32l31.32-14.61"/><path id="p4082-64" class="cls-3" d="M64.42,135.93l29.21-13.84"/><path id="p4122-1" class="cls-24" d="M120.16,135.42l-32.72,15.5s-14.22,11.54-26.91,21.94c3.25,1.66,6.44,3.38,9.5,5.17,6,3.63,13.9,6.63,20.6,3,4.27-2,8.67-4.14,13-6.18a3.25,3.25,0,0,1,.51-.19c.45-.2.83-.45,1.34-.64.19-.13.45-.07.64-.19,4.91-2.3,10-4.6,14.86-7,6.06-4.08,6.89-12.37,5.17-18.88A37.79,37.79,0,0,0,120.16,135.42Z"/><path id="p4239-0" class="cls-25" d="M126.35,148.43,65.06,175.35c1.65.83,3.38,1.72,5,2.68,6,3.63,13.9,6.63,20.6,3,4.27-2,8.67-4.14,13-6.18a3.25,3.25,0,0,1,.51-.19c.45-.2.83-.45,1.34-.64.19-.13.45-.07.64-.19,4.91-2.3,10-4.6,14.86-7C126.86,162.85,127.88,154.81,126.35,148.43Z"/><path id="p4080-1" class="cls-6" d="M81.13,141.8l30.93-13.9"/><path id="p4078-2-15" class="cls-7" d="M94.2,157.74l29.72-14"/><path id="p4078-3" class="cls-8" d="M93,155.77l29.72-14"/><path id="p4076-6-1" class="cls-9" d="M95.1,172.86l30.61-14.22"/><path id="p4076-0" class="cls-6" d="M95,170.44l30.55-14.23"/><path id="p3881-5-4" class="cls-26" d="M30.42,128.79a9.25,9.25,0,0,0-4.72,1.34c-5.55,3.44-5.42,12.63.13,20.53,3,4.28,6.19,7.59,9.76,9.57l33.87,17.29A24.63,24.63,0,0,0,74,180.07c6.13,3,12.31,3.57,17,.7,8.36-5.23,8.29-19.14-.19-31.13-5.36-7.59-12.88-12.37-19.71-13.64v-.2c-1.4-.12-38.65-6.88-40-7h-.64Z"/><path id="p3881-5-7-7" class="cls-27" d="M35.08,134.34a9.27,9.27,0,0,0-4,.63c-5,2.24-5.42,8.93-1,14.93a24.25,24.25,0,0,0,7.78,7.53L66,172a26.4,26.4,0,0,0,3.7,2.11c5.1,2.48,10.39,3.31,14.54,1.46,7.59-3.25,8.23-13.33,1.66-22.51A28.7,28.7,0,0,0,69.71,142v-.13c-1.21-.19-32.85-7.33-34-7.52h-.64Z"/><path id="p3881-5-7-4-0" class="cls-12" d="M39.22,135.29a14.4,14.4,0,0,0,3,7.47,25,25,0,0,0,7.85,7.52L78.13,165a20.89,20.89,0,0,0,3.7,2,21.49,21.49,0,0,0,8,2.55c1.47-4.53.13-10.65-4-16.39-4.28-5.81-10.27-9.82-16.08-11.16-1.08-.13-24.49-5.36-30.55-6.64Z"/><path id="p3881-6-4" class="cls-10" d="M60.08,115c-3.64.19-6.7,2.55-10,3.83-5.55,2.42-10.27,5-15.57,7.4-3,1.46-6.18,2.68-9.18,4.14-5,3.64-4.27,10.85-2,15.88A29.68,29.68,0,0,0,37.5,161.32C48.41,166.42,59.57,172,70.09,178c5.94,3.63,13.84,6.63,20.54,3,10.21-5,20.67-9.44,30.42-14.22,6-4.08,6.89-12.37,5.17-18.88-3.13-11.92-12.56-22.58-24.75-25.51-4.14-1.08-9-1.59-13.52-2.55-9.25-1.53-18.56-3.57-27.87-4.85Z"/><path id="p3881-7-3-7-3" class="cls-28" d="M44.65,136.38c-1.22.57-2.75,1.34-4.15,1.91-3.13,1.91-3.13,7,0,11.48s8.23,6.44,11.42,4.53c1.53-.7,2.74-1.34,4.14-1.85,3.06-2,3.06-7.08,0-11.54a21.68,21.68,0,0,0-2.49-2.49c-3-.7-5.93-1.34-8.92-2Z"/><path id="p3881-7-3-6" class="cls-12" d="M51.73,152.71c-3.07,1.91-8-.07-11-4.34s-3.12-9.31-.06-11.23,8,.07,11,4.34,3.13,9.31.07,11.23Z"/><path id="p3881-7-3-7-7-0" class="cls-28" d="M74.37,143.59a6.12,6.12,0,0,0-1.47.51c-1.66.63-3.64,1.78-5.49,2.48-4.27,2.62-4.27,9.51,0,15.57s11.17,8.73,15.38,6.12c2.1-.9,3.63-1.72,5.48-2.49a5.9,5.9,0,0,0,2-1.79,22.79,22.79,0,0,0-4.47-10.9A29.36,29.36,0,0,0,74.37,143.59Z"/><path id="p3881-7-3-8-5" class="cls-12" d="M82,167.57c-4.21,2.55-11-.26-15.12-6.25s-4.08-12.89.07-15.44,11,.26,15.11,6.25S86.17,165,82,167.57Z"/><path id="p3881-7-3-7-9-7" class="cls-29" d="M44.65,136.38c-1.22.57-2.75,1.34-4.15,1.91-3.13,1.91-3.13,7,0,11.48s8.23,6.44,11.42,4.53c1.53-.7,2.74-1.34,4.14-1.85,3.06-2,3.06-7.08,0-11.54a21.68,21.68,0,0,0-2.49-2.49"/><path id="p3881-7-3-7-7-7-5" class="cls-29" d="M74.37,143.59a6.12,6.12,0,0,0-1.47.51c-1.66.63-3.64,1.78-5.49,2.48-4.27,2.62-4.27,9.51,0,15.57s11.17,8.73,15.38,6.12c2.1-.9,3.63-1.72,5.48-2.49a5.9,5.9,0,0,0,2-1.79"/><path id="p3881-5-7-8-6" class="cls-29" d="M35.08,134.34a9.27,9.27,0,0,0-4,.63c-5,2.24-5.42,8.93-1,14.93a24.25,24.25,0,0,0,7.78,7.53L66,172a26.4,26.4,0,0,0,3.7,2.11c5.1,2.48,10.39,3.31,14.54,1.46,7.59-3.25,8.23-13.33,1.66-22.51A28.7,28.7,0,0,0,69.71,142c-11.1-2.55-22.77-5.23-34-7.65h-.64Z"/><path id="p3881-7-3-1-4" class="cls-5" d="M49.37,150.35c-1.66,1.08-4.34,0-6.06-2.43s-1.73-5.36-.07-6.44,4.34,0,6.06,2.42,1.72,5.36.07,6.45Z"/><path id="p3881-7-3-1-6-7" class="cls-27" d="M44.65,141.42c-.77,1.4-.51,3.5.89,5.48A6.44,6.44,0,0,0,50.19,150h.13c.77-1.46.38-3.76-1-5.74a6.68,6.68,0,0,0-4.72-2.8Z"/><path id="p5229-8-1" class="cls-30" d="M150.77,127.45l45.48-22.64"/><path id="p4502-0-2-8" class="cls-13" d="M149.12,123.81c-.32.13-6.19,3.58-6.57,3.89v37.38l32.91,16.52c.38-.19,6.18-3.64,6.5-3.83V140.33Z"/><path id="p4925-8" class="cls-11" d="M182,140.84l-39.41,22.71v1.53l32.91,16.52c.38-.19,6.18-3.64,6.5-3.83Z"/><path id="p4502-0-7" class="cls-12" d="M142.55,127.7v37.38l32.91,16.52V144.22Z"/><path id="p5229-81" class="cls-31" d="M151.41,125,197,102.38"/><path id="p4502-0-2-0-6" class="cls-32" d="M144.84,166.35l30.62,15.25c.38-.19,6.18-3.64,6.5-3.83V140.33l-32.84-16.52"/><path id="p4502-0-2-4-0" class="cls-13" d="M200.4,98.3c-.26.13-6.13,3.57-6.51,3.83v37.44l32.91,16.52c.38-.26,6.12-3.64,6.44-3.89V114.82Z"/><path id="p4925-0-0" class="cls-11" d="M233.24,115.27,193.89,138v1.6l32.91,16.52c.38-.26,6.12-3.64,6.44-3.89Z"/><path id="p4502-0-1-2" class="cls-12" d="M193.89,102.13v37.44l32.91,16.52V118.65l-32.91-16.52Z"/><path id="p4502-0-2-0-9-1" class="cls-32" d="M196.12,140.84l30.68,15.25c.38-.26,6.12-3.64,6.44-3.89V114.82L200.4,98.3"/><path id="p2993-7-9-8-8-5-9-2" class="cls-33" d="M214.87,29.61l-64.1,32.08V81.91l64.1-32.08Z"/><path id="p5068-5" class="cls-12" d="M214.87,36.82l-64.1,32.4V75l64.1-32.33Z"/><path id="p5093-4" class="cls-34" d="M193.32,50.85,208.5,43"/><path id="p5093-1-8" class="cls-34" d="M160.41,67.43l15.3-7.91"/></svg>