<svg id="svg2985" xmlns="http://www.w3.org/2000/svg" viewBox="0 0 248.74 195.63"><defs><style>.cls-1{fill:#838383;}.cls-2{fill:#989898;}.cls-10,.cls-14,.cls-15,.cls-16,.cls-17,.cls-18,.cls-20,.cls-21,.cls-22,.cls-23,.cls-29,.cls-3,.cls-30,.cls-31,.cls-32,.cls-34,.cls-6,.cls-7,.cls-8,.cls-9{fill:none;}.cls-22,.cls-23,.cls-3,.cls-6,.cls-8{stroke:#555;}.cls-19,.cls-23,.cls-3,.cls-32,.cls-34,.cls-6,.cls-9{stroke-linecap:round;}.cls-20,.cls-21,.cls-3,.cls-30,.cls-31{stroke-width:0.41px;}.cls-4{fill:#6c6c6c;}.cls-5{fill:#535353;}.cls-19,.cls-32,.cls-6,.cls-9{stroke-width:0.5px;}.cls-7{stroke:#959595;}.cls-10,.cls-7,.cls-8{stroke-width:0.57px;}.cls-9{stroke:#949494;}.cls-10,.cls-18,.cls-19,.cls-29,.cls-31,.cls-32{stroke:#515151;}.cls-11{fill:#999;}.cls-12{fill:#595959;}.cls-13{fill:#bababa;}.cls-14,.cls-20{stroke:#7e7e7e;}.cls-14{stroke-width:1.25px;}.cls-15{stroke:#454545;}.cls-15,.cls-22,.cls-23{stroke-width:0.33px;}.cls-16,.cls-21{stroke:#c5c5c5;}.cls-16,.cls-17,.cls-21{stroke-linejoin:bevel;}.cls-16,.cls-18{stroke-width:0.83px;}.cls-17{stroke:#797979;}.cls-17,.cls-29{stroke-width:0.25px;}.cls-19,.cls-27{fill:#515151;}.cls-24{fill:#888;}.cls-25{fill:#7a7a7a;}.cls-26{fill:#616161;}.cls-28{fill:#707070;}.cls-30{stroke:#bababa;}.cls-33{fill:#505050;}.cls-34{stroke:#6d6d6d;stroke-width:1.16px;}</style></defs><title>Artboard 1w</title><path id="p5953" class="cls-1" d="M96.88,88.8l-90.12,45,19.13,9.56L0,157.74l75.32,37.89,12.57-9.38L100.26,193l22.52-13.52,25.89,12.38L214,170.5Z"/><path id="p3881-2-7" class="cls-2" d="M106.26,67.69c3.63.13,6.76,2.48,10.07,3.82,5.55,2.43,10.21,4.92,15.57,7.28,3,1.46,6.18,2.74,9.12,4.14,5,3.64,4.33,10.91,2,15.88a29.44,29.44,0,0,1-14.23,15c-10.84,5.11-22,10.72-32.52,16.71-6,3.64-13.91,6.64-20.54,3-10-5-20.6-9.37-30.42-14.22-6-4-6.89-12.37-5.17-18.88C43.31,88.61,52.75,78,64.86,75c4.21-1.08,9.12-1.66,13.59-2.55C87.7,70.94,97,69,106.26,67.69Z"/><path id="p4082-6-4" class="cls-3" d="M102,88.48,72.77,74.64"/><path id="p4122-0-1" class="cls-4" d="M46.24,88,79,103.53s14.22,11.55,26.91,21.88c-3.18,1.66-6.5,3.38-9.5,5.16-6,3.64-13.9,6.64-20.6,3-4.34-2-8.74-4.08-13-6.18l-.51-.2c-.45-.19-.89-.44-1.34-.63-.19-.13-.45-.07-.64-.13-5-2.3-10-4.66-14.92-7.08-6-4-6.83-12.37-5.11-18.88a36,36,0,0,1,6-12.5Z"/><path id="p4239-2-9" class="cls-5" d="M40.05,101l61.3,26.86c-1.66.89-3.38,1.78-5,2.67-6,3.64-13.9,6.64-20.6,3-4.34-2-8.74-4.08-13-6.18l-.51-.2c-.45-.19-.89-.44-1.34-.63-.19-.13-.45-.07-.64-.13-5-2.3-10-4.66-14.92-7.08-5.81-3.89-6.83-12-5.3-18.31Z"/><path id="p4080-7-3" class="cls-6" d="M85.27,94.35,54.34,80.44"/><path id="p4078-2-1-7" class="cls-7" d="M72.2,110.36l-29.72-14"/><path id="p4078-5-9" class="cls-8" d="M73.41,108.32l-29.72-14"/><path id="p4076-6-9-2" class="cls-9" d="M71.37,125.41,40.69,111.25"/><path id="p4076-7-4" class="cls-6" d="M71.43,123,40.88,108.76"/><path id="p3881-6-0-0" class="cls-10" d="M106.26,67.69c3.63.13,6.76,2.48,10.07,3.82,5.55,2.43,10.21,4.92,15.57,7.28,3,1.46,6.18,2.74,9.12,4.14,5,3.64,4.33,10.91,2,15.88a29.44,29.44,0,0,1-14.23,15c-10.84,5.11-22,10.72-32.52,16.71-6,3.64-13.91,6.64-20.54,3-10.27-5-20.66-9.44-30.42-14.22-6-4-6.89-12.37-5.17-18.88C43.31,88.61,52.75,78,64.86,75c4.21-1.08,9.12-1.66,13.59-2.55C87.7,70.94,97,69,106.26,67.69Z"/><path id="p2993-7-32" class="cls-11" d="M137.7,46.9l77.49,38.71V135L137.7,173.82,60.21,135V85.61Z"/><path id="p4502-8" class="cls-12" d="M188.79,72.47l26.4,13.14V135L138,173.63V114.25l50.77-41.78Z"/><path id="p2993-7-9-49" class="cls-13" d="M137.7,124.39l77.49-38.78L137.7,46.9,60.21,85.61Z"/><path id="p3111-6" class="cls-14" d="M138.08,125.15v47.77"/><path id="p2993-7-9-7-0" class="cls-15" d="M150.58,53.34,196.31,76,161.74,93.45,116,70.56Z"/><path id="p2993-7-9-4-0" class="cls-16" d="M60.21,85.61l77.49,38.78,77.49-38.78"/><path id="p4705-4" class="cls-17" d="M202,118.84V103l-26.92,13.52v13"/><path id="p2993-7-3-6" class="cls-18" d="M137.7,46.9l77.49,38.71V135L137.7,173.82,60.21,135V85.61Z"/><path id="p4109-4" class="cls-19" d="M107.66,58.5c9.25-.32,20.35,4.28,26.34,11.42,5.36,6.31,6.44,12.18,4.08,16.2,1.85,8.87.32,16.07-9.37,18.24s-23.35-2.74-30.23-10.91c-5.36-6.25-5-11.35-4.47-16.64.32-9.7.06-15.63,9.82-17.73a24.16,24.16,0,0,1,3.83-.58Z"/><path id="p2993-7-9-8-29" class="cls-11" d="M87.25.46l77.49,38.72v35.4L124.05,95,46.56,56.21V20.81Z"/><path id="p2993-7-9-8-8-5-59" class="cls-13" d="M52.55,28.34l66.78,33.42V84.91L52.55,51.55Z"/><path id="p4170-7" class="cls-12" d="M147.2,30.31l17.54,8.87v35.4L124.18,95V51.87l-.45-1.66Z"/><path id="p5148-2" class="cls-20" d="M124.24,59.65V93"/><path id="p2993-7-9-8-8-51" class="cls-13" d="M87.31.46l77.5,38.72L124.05,59.52,46.56,20.81Z"/><path id="p2993-7-9-8-8-57-9" class="cls-21" d="M164.81,39.18,124.05,59.52,46.56,20.81"/><path id="p2993-7-9-8-2-6" class="cls-18" d="M87.25.46l77.49,38.72v35.4L124.05,95,46.56,56.21V20.81Z"/><path id="p2993-7-9-8-8-5-5-0" class="cls-12" d="M52.55,28.34l22.9,11.48L52.55,51.23Z"/><path id="p3881-3" class="cls-2" d="M210,115c3.63.19,6.69,2.55,9.95,3.83,5.61,2.42,10.26,5,15.56,7.4,3,1.46,6.25,2.68,9.18,4.14,5,3.64,4.28,10.85,2,15.88a29.16,29.16,0,0,1-14.16,15.06C221.63,166.42,210.47,172,200,178c-5.93,3.63-13.84,6.63-20.47,3-10.08-5-20.61-9.37-30.43-14.22-6-4.08-6.89-12.37-5.16-18.88,3.12-11.92,12.5-22.58,24.68-25.51,4.21-1.08,9.06-1.59,13.52-2.55,9.25-1.53,18.62-3.57,27.94-4.85Z"/><path id="p4084-7" class="cls-22" d="M223.42,132.93l-30.81-14.6"/><path id="p4084-9-0" class="cls-23" d="M236.3,130.32l-31.25-14.61"/><path id="p4082-64" class="cls-3" d="M205.69,135.93l-29.21-13.84"/><path id="p4122-1" class="cls-24" d="M149.88,135.42l32.78,15.5s14.23,11.54,26.86,21.94c-3.19,1.66-6.38,3.38-9.51,5.17-6,3.63-13.9,6.63-20.53,3-4.28-2-8.68-4.14-13-6.18-.19-.07-.38-.13-.51-.19-.44-.2-.89-.45-1.33-.64-.26-.13-.45-.07-.64-.19-5-2.3-10-4.6-14.86-7-6.06-4.08-6.89-12.37-5.23-18.88A39,39,0,0,1,149.88,135.42Z"/><path id="p4239-0" class="cls-25" d="M143.76,148.43l61.29,26.92c-1.72.83-3.44,1.72-5,2.68-6,3.63-13.9,6.63-20.53,3-4.28-2-8.68-4.14-13-6.18-.19-.07-.38-.13-.51-.19-.44-.2-.89-.45-1.33-.64-.26-.13-.45-.07-.64-.19-5-2.3-10-4.6-14.86-7C143.19,162.85,142.23,154.81,143.76,148.43Z"/><path id="p4080-1" class="cls-6" d="M189,141.8l-30.93-13.9"/><path id="p4078-2-15" class="cls-7" d="M175.84,157.74l-29.66-14"/><path id="p4078-3" class="cls-8" d="M177.12,155.77l-29.73-14"/><path id="p4076-6-1" class="cls-9" d="M175,172.86,144.4,158.64"/><path id="p4076-0" class="cls-6" d="M175.14,170.44l-30.62-14.23"/><path id="p3881-5-4" class="cls-26" d="M239.68,128.79a9.2,9.2,0,0,1,4.72,1.34c5.55,3.44,5.36,12.63-.19,20.53-3,4.28-6.12,7.59-9.69,9.57l-33.93,17.29a24.59,24.59,0,0,1-4.47,2.55c-6.12,3-12.37,3.57-17,.7-8.42-5.23-8.29-19.14.13-31.13,5.42-7.59,12.88-12.37,19.71-13.64v-.2c1.4-.12,38.71-6.88,40.12-7h.63Z"/><path id="p3881-5-7-7" class="cls-27" d="M235,134.34a9.3,9.3,0,0,1,4.09.64c5,2.23,5.35,8.92,1,14.92a24.43,24.43,0,0,1-7.85,7.53L204.16,172a36.66,36.66,0,0,1-3.7,2.11c-5.17,2.48-10.46,3.31-14.61,1.46-7.52-3.25-8.22-13.33-1.59-22.51A28.45,28.45,0,0,1,200.4,142v-.13c1.14-.19,32.78-7.33,34-7.52H235Z"/><path id="p3881-5-7-4-0" class="cls-12" d="M230.88,135.29a14.93,14.93,0,0,1-3,7.47,25.25,25.25,0,0,1-7.9,7.52L192,165a24.1,24.1,0,0,1-3.7,2,21.82,21.82,0,0,1-8,2.55c-1.47-4.53-.13-10.65,4-16.39a28.74,28.74,0,0,1,16-11.16c1.08-.13,24.49-5.36,30.61-6.64Z"/><path id="p3881-6-4" class="cls-10" d="M210,115c3.63.19,6.69,2.55,9.95,3.83,5.61,2.42,10.26,5,15.56,7.4,3,1.46,6.25,2.68,9.18,4.14,5,3.64,4.28,10.85,2,15.88a29.16,29.16,0,0,1-14.16,15.06C221.63,166.42,210.47,172,200,178c-5.93,3.63-13.84,6.63-20.47,3-10.21-5-20.73-9.44-30.43-14.22-6-4.08-6.89-12.37-5.16-18.88,3.12-11.92,12.5-22.58,24.68-25.51,4.21-1.08,9.06-1.59,13.52-2.55,9.25-1.53,18.62-3.57,27.94-4.85Z"/><path id="p3881-7-3-7-3" class="cls-28" d="M225.4,136.38c1.21.57,2.8,1.34,4.14,1.91,3.13,1.91,3.19,7,0,11.48s-8.22,6.44-11.35,4.53c-1.53-.7-2.81-1.34-4.15-1.85-3.12-2-3.12-7.08,0-11.54a18.31,18.31,0,0,1,2.49-2.49c3-.7,5.87-1.34,8.87-2Z"/><path id="p3881-7-3-6" class="cls-12" d="M218.32,152.71c3.06,1.91,8-.07,11.1-4.34s3.12-9.31.06-11.23-8,.07-11.1,4.34-3.06,9.31-.06,11.23Z"/><path id="p3881-7-3-7-7-0" class="cls-28" d="M195.68,143.59a5.74,5.74,0,0,1,1.53.51c1.65.63,3.63,1.78,5.48,2.48,4.21,2.62,4.21,9.51,0,15.57s-11.16,8.73-15.37,6.12c-2.17-.89-3.63-1.72-5.55-2.49a7.47,7.47,0,0,1-2-1.79,23,23,0,0,1,4.53-10.9A29.16,29.16,0,0,1,195.68,143.59Z"/><path id="p3881-7-3-8-5" class="cls-12" d="M188.09,167.57c4.14,2.55,10.9-.26,15-6.25s4.14-12.89-.07-15.44-10.9.26-15,6.25-4.14,12.89.07,15.44Z"/><path id="p3881-7-3-7-9-7" class="cls-29" d="M225.4,136.38c1.21.57,2.8,1.34,4.14,1.91,3.13,1.91,3.19,7,0,11.48s-8.22,6.44-11.35,4.53c-1.53-.7-2.81-1.34-4.15-1.85-3.12-2-3.12-7.08,0-11.54a18.31,18.31,0,0,1,2.49-2.49"/><path id="p3881-7-3-7-7-7-5" class="cls-29" d="M195.68,143.59a5.74,5.74,0,0,1,1.53.51c1.65.63,3.63,1.78,5.48,2.48,4.21,2.62,4.21,9.51,0,15.57s-11.16,8.73-15.37,6.12c-2.17-.89-3.63-1.72-5.55-2.49a7.47,7.47,0,0,1-2-1.79"/><path id="p3881-5-7-8-6" class="cls-29" d="M235,134.34a9.3,9.3,0,0,1,4.09.64c5,2.23,5.35,8.92,1,14.92a24.43,24.43,0,0,1-7.85,7.53L204.16,172a36.66,36.66,0,0,1-3.7,2.11c-5.17,2.48-10.46,3.31-14.61,1.46-7.52-3.25-8.22-13.33-1.59-22.51A28.45,28.45,0,0,1,200.4,142c11-2.55,22.7-5.23,34-7.65H235Z"/><path id="p3881-7-3-1-4" class="cls-5" d="M220.68,150.35c1.66,1.08,4.4,0,6.06-2.43s1.72-5.36.06-6.44-4.34,0-6,2.42-1.72,5.36-.12,6.45Z"/><path id="p3881-7-3-1-6-7" class="cls-27" d="M225.4,141.42c.83,1.4.51,3.5-.83,5.48a6.46,6.46,0,0,1-4.66,3.06h-.19c-.7-1.46-.38-3.76,1-5.74a6.76,6.76,0,0,1,4.72-2.8Z"/><path id="p5229-8-1" class="cls-30" d="M119.33,127.45,73.86,104.81"/><path id="p4502-0-2-8" class="cls-13" d="M121,123.81c.25.13,6.12,3.58,6.51,3.89v37.38L94.65,181.6c-.45-.19-6.19-3.64-6.51-3.83V140.33Z"/><path id="p4925-8" class="cls-11" d="M88.14,140.84l39.36,22.71v1.53L94.65,181.6c-.45-.19-6.19-3.64-6.51-3.83Z"/><path id="p4502-0-7" class="cls-12" d="M127.5,127.7v37.38L94.65,181.6V144.22Z"/><path id="p5229-81" class="cls-31" d="M118.69,125,73.16,102.38"/><path id="p4502-0-2-0-6" class="cls-32" d="M125.26,166.35,94.65,181.6c-.45-.19-6.19-3.64-6.51-3.83V140.33L121,123.81"/><path id="p4502-0-2-4-0" class="cls-13" d="M69.71,98.3c.26.13,6.12,3.57,6.51,3.83v37.44L43.31,156.09c-.39-.26-6.19-3.64-6.51-3.89V114.82Z"/><path id="p4925-0-0" class="cls-11" d="M36.8,115.27,76.22,138v1.6L43.31,156.09c-.39-.26-6.19-3.64-6.51-3.89Z"/><path id="p4502-0-1-2" class="cls-12" d="M76.22,102.13v37.44L43.31,156.09V118.65l32.91-16.52Z"/><path id="p4502-0-2-0-9-1" class="cls-32" d="M74,140.84,43.31,156.09c-.39-.26-6.19-3.64-6.51-3.89V114.82L69.71,98.3"/><path id="p2993-7-9-8-8-5-9-2" class="cls-33" d="M55.17,29.61l64.16,32.08V81.91L55.17,49.83Z"/><path id="p5068-5" class="cls-12" d="M55.17,36.82l64.16,32.4V75L55.17,42.69Z"/><path id="p5093-4" class="cls-34" d="M76.79,50.85,61.55,43"/><path id="p5093-1-8" class="cls-34" d="M109.64,67.43,94.39,59.52"/></svg>